<svg xmlns="http://www.w3.org/2000/svg" viewBox="0 0 116.7 122.19"><defs><style>.cls-1{fill:#7f00ff;stroke:#7f00ff;stroke-miterlimit:10;}</style></defs><g id="Layer_2" data-name="Layer 2"><g id="Layer_1-2" data-name="Layer 1"><path class="cls-1" d="M108.18,65.89a49.5,49.5,0,0,0-8.5-22.57q-1.34-1.95-2.87-3.77a44.56,44.56,0,0,0-3.7-3.95A49.79,49.79,0,0,0,58.52,21.69c-1.06,0-2.12,0-3.16.11A50,50,0,0,0,8.83,66.11h0a48.87,48.87,0,0,0-.31,5.57c0,1.32.05,2.62.16,3.91a50,50,0,0,0,99.67.22h0c.11-1.36.17-2.73.17-4.12A48.31,48.31,0,0,0,108.18,65.89ZM34.61,74.8a4,4,0,1,1,4-4A4,4,0,0,1,34.61,74.8Zm45.79,0a4,4,0,1,1,4-4A4,4,0,0,1,80.4,74.8Z"/><path class="cls-1" d="M55.74,21.64C66.67,18.19,83.63,11.26,85.4,1.09A.69.69,0,0,1,86.7.88c2.14,4.19,5.84,13.84-1.45,20,0,0,4.61,4,11.31-2.52a.15.15,0,0,1,.28.06c1.11,3.61-1.91,8.54-8.56,11,0,0,5.31,1.26,8.37.44,3.56-1-5.92,9-9.38,10s11.5.06,13.86-1.3c3.89-2.26-1,7.65-7.51,7.5-5.91-.13-8.46-14.1-37.69-20.27A2.13,2.13,0,0,1,55.74,21.64Z"/><ellipse class="cls-1" cx="110.91" cy="70.8" rx="5.28" ry="5.74"/><ellipse class="cls-1" cx="5.78" cy="70.8" rx="5.28" ry="5.74"/></g></g></svg>